<svg xmlns="http://www.w3.org/2000/svg" version="1.1" xmlns:xlink="http://www.w3.org/1999/xlink" xmlns:svgjs="http://svgjs.dev/svgjs" width="2000" height="1247" viewBox="0 0 2000 1247"><g transform="matrix(1,0,0,1,-1.2121212121212466,0.504858299595071)"><svg viewBox="0 0 396 247" data-background-color="#ffffff" preserveAspectRatio="xMidYMid meet" height="1247" width="2000" xmlns="http://www.w3.org/2000/svg" xmlns:xlink="http://www.w3.org/1999/xlink"><g id="tight-bounds" transform="matrix(1,0,0,1,0.2400000000000091,-0.09999999999999432)"><svg viewBox="0 0 395.52 247.2" height="247.2" width="395.52"><g><svg></svg></g><g><svg viewBox="0 0 395.52 247.2" height="247.2" width="395.52"><g transform="matrix(1,0,0,1,75.54432,89.73143090039636)"><svg viewBox="0 0 244.43135999999998 67.73713819920728" height="67.73713819920728" width="244.43135999999998"><g><svg viewBox="0 0 244.43135999999998 67.73713819920728" height="67.73713819920728" width="244.43135999999998"><g><svg viewBox="0 0 407.4444768069044 112.91154634975229" height="67.73713819920728" width="244.43135999999998"><g transform="matrix(1,0,0,1,163.01311680690438,9.51195233997219)"><svg viewBox="0 0 244.43135999999998 93.8876416698079" height="93.8876416698079" width="244.43135999999998"><g id="textblocktransform"><svg viewBox="0 0 244.43135999999998 93.8876416698079" height="93.8876416698079" width="244.43135999999998" id="textblock"><g><svg viewBox="0 0 244.43135999999998 50.63850762849414" height="50.63850762849414" width="244.43135999999998"><g transform="matrix(1,0,0,1,0,0)"><svg width="244.43135999999998" viewBox="0.1 -35.7 221.78 45.95" height="50.63850762849414" data-palette-color="#398378"><path d="M20.1-0.6L20.1-0.6Q18.9 1.25 18.9 1.83 18.9 2.4 19.35 2.6L19.35 2.6Q19.35 2.7 18.53 3.23 17.7 3.75 16.25 3.75 14.8 3.75 14.8 3L14.8 3Q14.8 1.7 19.73-5.63 24.65-12.95 26.2-15.75L26.2-15.75Q29.6-21.85 29.6-25.4L29.6-25.4Q29.6-26.8 29.05-28L29.05-28Q28.2-29.8 24.95-29.8L24.95-29.8Q19-29.8 12.3-24.35L12.3-24.35Q7.2-20.15 4.45-15.65L4.45-15.65Q1.95-11.4 1.95-8.05L1.95-8.05Q1.95-3.25 6.4-3.15L6.4-3.15Q6.6-3.15 6.8-3.15L6.8-3.15Q12.7-3.15 15.75-7.3L15.75-7.3Q16.95-8.95 16.95-10.1 16.95-11.25 16.4-11.55L16.4-11.55Q16.35-11.6 16.35-11.75 16.35-11.9 16.65-11.9L16.65-11.9Q17.95-11.9 17.95-10.2L17.95-10.2Q17.95-9.15 16.95-7.35 15.95-5.55 13.33-3.95 10.7-2.35 7.35-2.35 4-2.35 2.05-4.3 0.1-6.25 0.1-9.55L0.1-9.55Q0.1-17.35 10.8-25.95L10.8-25.95Q13.5-28.1 17.82-29.55 22.15-31 25.68-31 29.2-31 30.65-29.68 32.1-28.35 32.1-26L32.1-26Q32.1-20.3 25.2-9.85L25.2-9.85Q26.75-11.8 30.25-14.8L30.25-14.8Q42.7-25.25 51.65-28.55L51.65-28.55Q52.1-28.75 52.65-28.75L52.65-28.75Q54.55-28.75 55.05-26.6L55.05-26.6Q55.3-25.75 52.65-23.05L52.65-23.05Q46.4-16.65 42.05-9.05 37.7-1.45 37.7 1.85L37.7 1.85Q37.7 2.65 38 2.98 38.3 3.3 38.95 3.18 39.6 3.05 41.68 2.15 43.75 1.25 44.4 1.1L44.4 1.1Q44.65 1.2 44.65 1.35L44.65 1.35Q44.65 2.1 42.03 3.45 39.4 4.8 38.1 4.8 36.8 4.8 36.45 4.35L36.45 4.35Q35.55 3.1 35.55 1.2L35.55 1.2Q35.55-3.1 40.15-11.15L40.15-11.15Q43.1-16.2 49.25-24.75L49.25-24.75Q42.6-24.15 32.05-14.25L32.05-14.25Q23.65-6.3 20.1-0.6ZM62.95-15.25L62.95-15.25 63.65-15.4Q64.3-15.4 64.67-15 65.05-14.6 65.05-14.38 65.05-14.15 65-13.88 64.95-13.6 63.55-11.35L63.55-11.35Q61.8-8.3 60.65-6.2L60.65-6.2Q56.6 1.35 54.45 4.15L54.45 4.15Q49.85 10.25 45.7 10.25L45.7 10.25Q44.25 10.25 43.17 9.03 42.1 7.8 42.05 6.3L42.05 6.3Q42.2 5.7 42.5 5.7L42.5 5.7Q42.65 5.7 42.75 6.05L42.75 6.05Q43 7.35 43.7 8.05 44.4 8.75 45.1 8.75L45.1 8.75Q47.95 8.75 51.2 5L51.2 5Q53.35 2.5 55.95-2.3L55.95-2.3 58.45-7.25 54.7-3.45Q51.1 0 49.77 0 48.45 0 47.25-0.9L47.25-0.9Q45.9-1.9 45.9-3.55L45.9-3.55Q45.9-7.2 51.02-12.25 56.15-17.3 60.35-17.3L60.35-17.3Q62.05-17.3 62.55-16.2L62.55-16.2Q62.7-15.8 62.8-15.53 62.9-15.25 62.95-15.25ZM48-2.95L48-2.95Q48-1.15 49.25-1.15L49.25-1.15Q52.15-1.15 57.15-7.5L57.15-7.5 62.45-14.8Q62.15-15.5 61.2-15.5L61.2-15.5Q58.1-15.5 53.05-10.73 48-5.95 48-2.95ZM76.59-0.2L76.59-0.2Q73.65-0.2 73.65-3.65L73.65-3.65Q73.65-5.6 75.02-7.98 76.4-10.35 78.4-13.55L78.4-13.55Q72-10.35 66.8-4.1L66.8-4.1Q63.9 0.25 63.4 0.25L63.4 0.25Q61.95 0.25 61.95-0.6L61.95-0.6Q61.95-1.05 62.55-2.2L62.55-2.2Q67.4-10.85 69.9-14.85L69.9-14.85Q75.84-24.4 78.3-25.2L78.3-25.2Q78.4-25.25 78.5-25.25L78.5-25.25Q79.15-25.25 79.4-24.2L79.4-24.2Q79.25-23.15 74.2-16.6L74.2-16.6Q68.95-9.95 68.25-7.9L68.25-7.9Q70.09-9.25 74.7-12.45L74.7-12.45Q79.65-15.9 81.25-15.9 82.84-15.9 82.84-14.65L82.84-14.65Q82.84-14.45 82.82-14.38 82.8-14.3 79.34-9.65 75.9-5 75.9-2.8L75.9-2.8Q75.9-1.65 76.75-1.65L76.75-1.65Q79.45-1.75 84.84-8.15L84.84-8.15Q85.3-8.6 85.52-8.6 85.75-8.6 85.75-8.3L85.75-8.3Q85.75-7.3 80.8-2.9L80.8-2.9Q77.7-0.2 76.59-0.2ZM94.39-20.4Q95.14-20.4 95.82-19.93 96.49-19.45 96.49-18.8 96.49-18.15 95.87-17.68 95.24-17.2 94.49-17.2 93.74-17.2 93.12-17.75 92.49-18.3 92.49-19L92.49-19Q92.49-20.4 94.39-20.4L94.39-20.4ZM85.34 0.55L85.34 0.55Q82.79 0.55 82.79-2.75L82.79-2.75Q82.79-5.45 85.74-10.23 88.69-15 90.49-15.05L90.49-15.05Q90.99-15.05 91.62-14.65 92.24-14.25 92.24-13.85L92.24-13.85Q91.99-13.5 91.64-13.08 91.29-12.65 90.89-12.15 90.49-11.65 89.79-10.73 89.09-9.8 88.44-8.95L88.44-8.95Q84.69-4.1 84.69-2.27 84.69-0.45 85.94-0.45L85.94-0.45Q86.99-0.45 88.79-1.6L88.79-1.6Q92.99-4.2 95.44-7.3L95.44-7.3Q96.34-8.45 96.67-8.45 96.99-8.45 96.99-8.05 96.99-7.65 95.84-6.45 94.69-5.25 94.02-4.55 93.34-3.85 93.09-3.63 92.84-3.4 92.17-2.78 91.49-2.15 91.14-1.9 90.79-1.65 90.14-1.15 89.49-0.65 88.99-0.43 88.49-0.2 87.84 0.1L87.84 0.1Q86.79 0.55 85.34 0.55ZM97.39 0.65L97.39 0.65Q96.84 0.65 96.39 0.5L96.39 0.5Q93.19-0.4 93.19-3.1L93.19-3.1Q93.19-6.6 97.59-11.2 101.99-15.8 105.49-15.8L105.49-15.8Q106.64-15.8 107.37-15.18 108.09-14.55 108.09-13.65L108.09-13.65Q108.09-10.85 103.87-8.3 99.64-5.75 96.99-5.75L96.99-5.75Q96.59-5.75 96.29-5.85L96.29-5.85Q95.54-4.5 95.54-3L95.54-3Q95.54-0.4 98.02-0.4 100.49-0.4 104.44-3.75L104.44-3.75Q107.49-6.2 109.64-8.95L109.64-8.95Q110.09-9.55 110.42-9.55 110.74-9.55 110.74-9.25 110.74-8.95 110.34-8.4L110.34-8.4Q107.64-4.85 103.84-2.1 100.04 0.65 97.39 0.65ZM106.84-13.75L106.84-13.75Q106.84-14.35 105.56-14.35 104.29-14.35 101.94-12.4L101.94-12.4Q98.79-9.8 97.04-6.95L97.04-6.95Q97.34-6.85 97.69-6.85L97.69-6.85Q99.59-6.85 102.77-8.88 105.94-10.9 106.74-13.3L106.74-13.3Q106.84-13.55 106.84-13.75ZM131.59-0.6L131.59-0.6Q128.19-0.6 128.19-3.75L128.19-3.75Q128.19-5.55 129.79-8.68 131.39-11.8 133.14-13.95L133.14-13.95Q130.04-12.45 125.99-8.53 121.94-4.6 120.34-0.3L120.34-0.3Q120.09 0.1 119.49 0.1L119.49 0.1Q118.29 0.1 118.29-1.25L118.29-1.25Q118.79-4 120.54-7.55L120.54-7.55Q121.09-8.7 123.79-14.25L123.79-14.25Q119.89-11.7 117.16-8.78 114.44-5.85 112.11-2.9 109.79 0.05 109.49 0.05L109.49 0.05Q108.84 0.05 108.36-0.55 107.89-1.15 107.89-1.75L107.89-1.75Q107.89-2.65 110.49-8.35L110.49-8.35 107.49-5.2Q106.39-4.1 106.11-4.1 105.84-4.1 105.84-4.42 105.84-4.75 106.24-5.15L106.24-5.15Q108.09-7 109.54-8.85 110.99-10.7 114.34-15.45L114.34-15.45Q114.89-16.2 115.89-16.2 116.89-16.2 116.89-15.25L116.89-15.25Q116.89-14.9 114.24-10.38 111.59-5.85 111.29-4.7L111.29-4.7Q113.34-6.95 117.44-10.75L117.44-10.75Q123.59-16.45 125.54-16.45L125.54-16.45Q126.14-16.45 126.64-16.1 127.14-15.75 127.14-15.33 127.14-14.9 125.19-11.55L125.19-11.55Q123.29-8.1 123.09-7.45L123.09-7.45Q128.64-12.1 128.64-12.15L128.64-12.15Q133.34-15.8 135.39-15.8L135.39-15.8Q135.99-15.8 136.51-15.43 137.04-15.05 137.04-14.55L137.04-14.55Q137.04-14.45 133.79-10.33 130.54-6.2 130.14-3.55L130.14-3.55Q130.04-2.65 130.49-2.2 130.94-1.75 132.11-1.75 133.29-1.75 135.56-3.38 137.84-5 140.19-7.75L140.19-7.75Q141.09-8.75 141.41-8.75 141.74-8.75 141.74-8.5L141.74-8.5Q141.74-8.15 141.29-7.7L141.29-7.7Q138.84-4.75 136.01-2.68 133.19-0.6 131.59-0.6ZM174.94-19.8L174.94-19.8 174.59-21.15Q174.59-21.55 174.99-21.55L174.99-21.55Q175.14-21.55 175.39-21.4L175.39-21.4Q176.54-20.55 176.54-19.15 176.54-17.75 174.74-16.43 172.94-15.1 170.19-15.1L170.19-15.1Q169.34-15.1 168.49-15.25L168.49-15.25Q165.04-8.9 160.09-3.55L160.09-3.55Q153.49 3.45 148.09 3.45L148.09 3.45Q140.29 3.45 140.29-5.75L140.29-5.75Q140.29-13.35 144.34-18L144.34-18Q147.74-22 152.14-22L152.14-22Q153.29-22 154.49-21.6L154.49-21.6Q157.44-20.45 157.44-16.73 157.44-13 154.39-8.95 151.34-4.9 148.14-4.9L148.14-4.9Q144.54-4.9 144.54-8.8L144.54-8.8Q144.54-9.9 145.01-11.1 145.49-12.3 146.09-12.3L146.09-12.3Q146.54-12.3 146.54-11.85L146.54-11.85Q146.54-11.6 146.09-10.6 145.64-9.6 145.64-8.83 145.64-8.05 146.46-7.38 147.29-6.7 148.19-6.7L148.19-6.7Q151.14-6.7 153.66-10.33 156.19-13.95 156.19-17.4L156.19-17.4Q156.19-20.05 154.29-20.9L154.29-20.9Q153.64-21.15 152.94-21.15L152.94-21.15Q149.39-21.15 145.84-16.25L145.84-16.25Q142.39-11.3 142.39-5.4L142.39-5.4Q142.39-2.15 143.79-0.1L143.79-0.1Q145.24 2 147.79 2L147.79 2Q154.39 2 164.99-15.95L164.99-15.95Q159.49-17.6 159.49-22.45L159.49-22.45Q159.49-28.9 166.04-32.75L166.04-32.75Q170.19-35.15 174.09-35.15L174.09-35.15Q177.14-35.15 179.59-34.15L179.59-34.15Q183.04-32.8 183.04-30.05L183.04-30.05Q183.04-29.45 182.76-28.9 182.49-28.35 182.19-28.35L182.19-28.35Q181.54-29 180.64-29L180.64-29Q176.39-29 168.99-16.35L168.99-16.35Q169.39-16.3 169.84-16.3L169.84-16.3Q171.54-16.3 173.24-17.3 174.94-18.3 174.94-19.8ZM175.29-33.75Q172.74-33.75 169.41-32.27 166.09-30.8 164.11-27.95 162.14-25.1 162.14-21.5 162.14-17.9 165.84-17.2L165.84-17.2Q168.59-21.7 172.94-26.18 177.29-30.65 180.19-30.65L180.19-30.65Q180.94-30.65 181.49-30.3L181.49-30.3Q181.44-31.7 179.54-32.75L179.54-32.75Q177.84-33.75 175.29-33.75ZM169.43-3.35L169.43-3.35Q169.43-8.75 172.63-14.05L172.63-14.05Q168.93-16.4 168.93-21L168.93-21Q168.93-26.55 173.83-30.85L173.83-30.85Q179.33-35.7 188.03-35.7L188.03-35.7Q192.03-35.7 196.63-34.55L196.63-34.55Q197.68-34.3 205.58-30.68 213.48-27.05 216.93-27.05L216.93-27.05Q219.23-27.05 220.38-28.35L220.38-28.35Q220.98-29 220.98-29.75 220.98-30.5 220.33-31.1L220.33-31.1Q219.98-31.6 219.98-31.75 219.98-31.9 220.26-31.9 220.53-31.9 221.21-31.03 221.88-30.15 221.88-28.98 221.88-27.8 220.31-26.73 218.73-25.65 216.33-25.65L216.33-25.65Q212.58-25.65 204.68-29.28 196.78-32.9 194.76-33.3 192.73-33.7 190.13-33.7L190.13-33.7Q179.78-33.7 173.83-27L173.83-27Q173.13-26.25 172.18-23.98 171.23-21.7 171.23-19.6L171.23-19.6Q171.23-16.7 173.28-15.1L173.28-15.1Q175.88-18.9 179.43-21.15 182.98-23.4 186.63-23.4L186.63-23.4Q191.13-23.4 191.13-19.9L191.13-19.9Q191.13-15.7 186.21-10.78 181.28-5.85 177.08-5.85L177.08-5.85Q174.38-5.85 174.38-8.15L174.38-8.15Q174.38-8.95 174.81-9.55 175.23-10.15 175.83-10L175.83-10 175.73-8.85Q175.73-8.1 178.03-8.1L178.03-8.1Q181.43-8.1 185.21-11.6 188.98-15.1 189.78-18.45L189.78-18.45Q189.98-19.2 189.98-19.8L189.98-19.8Q189.98-22.05 187.11-22.05 184.23-22.05 181.16-19.85 178.08-17.65 175.38-14.05L175.38-14.05Q175.58-13.95 176.93-13.65L176.93-13.65 179.93-13.55Q182.13-13.45 182.13-13.05L182.13-13.05Q182.13-12.35 180.03-12.35L180.03-12.35Q179.88-12.35 179.73-12.35L179.73-12.35Q176.68-12.35 174.73-13.1L174.73-13.1Q170.88-7.2 170.88-2.25L170.88-2.25Q170.88 4.15 175.83 4.15L175.83 4.15Q181.43 4.15 187.48-3.65L187.48-3.65 197.28-18.25Q202.78-26.25 206.83-26.45L206.83-26.45 208.73-26Q209.63-25.5 209.63-24.5 209.63-23.5 209.13-23.5L209.13-23.5 207.53-23.75Q204.08-23.75 198.68-16.3L198.68-16.3 188.73-2.4Q182.33 5.05 176.48 5.05L176.48 5.05Q172.48 5.05 170.96 2.9 169.43 0.75 169.43-3.35Z" opacity="1" transform="matrix(1,0,0,1,0,0)" fill="#398378" class="wordmark-text-0" data-fill-palette-color="primary" id="text-0"></path></svg></g></svg></g><g transform="matrix(1,0,0,1,0,62.59304395539852)"><svg viewBox="0 0 244.43135999999998 31.29459771440938" height="31.29459771440938" width="244.43135999999998"><g transform="matrix(1,0,0,1,0,0)"><svg width="244.43135999999998" viewBox="-0.5 -35.65 308.61 39.349999999999994" height="31.29459771440938" data-palette-color="#398378"><path d="M17.5-19.35Q16.9-19.65 16-19.65L16-19.65Q13.75-19.65 11.5-18.75 9.25-17.85 9.25-16.45L9.25-16.45Q9.25-15.45 10.15-14.85 11.05-14.25 13-13.5L13-13.5Q15.1-12.65 16.4-11.9 17.7-11.15 18.68-9.73 19.65-8.3 19.65-6.1L19.65-6.1Q19.65-2.5 16.68-0.58 13.7 1.35 8.7 1.35L8.7 1.35Q6.25 1.35 4.15 0.6 2.05-0.15 0.83-1.33-0.4-2.5-0.5-3.65L-0.5-3.65Q-0.5-4.85 0.55-5.63 1.6-6.4 3.5-6.65L3.5-6.65Q3.55-5.65 4.55-4.78 5.55-3.9 6.93-3.38 8.3-2.85 9.3-2.85L9.3-2.85Q11-2.85 12.4-3.78 13.8-4.7 13.8-5.95L13.8-5.95Q13.8-8.25 9.35-9.6L9.35-9.6Q6.5-10.45 4.98-12.3 3.45-14.15 3.45-16.2L3.45-16.2Q3.45-20.25 7.13-22.03 10.8-23.8 16.5-23.8L16.5-23.8Q19.7-23.8 21.45-23.05 23.2-22.3 23.2-20.45L23.2-20.45Q23.2-19.2 22.28-18.25 21.35-17.3 19.65-17.3L19.65-17.3Q18.15-17.3 17.73-17.53 17.3-17.75 17.25-18.3L17.25-18.3Q17.25-18.8 17.5-19.35L17.5-19.35ZM49.45 1.05Q45.05 1.05 42.6-1.95 40.15-4.95 40.15-9.6L40.15-9.6Q40.15-13.5 42.03-16.95 43.9-20.4 47.15-22.5 50.4-24.6 54.3-24.6L54.3-24.6Q58.15-24.6 60.63-22.08 63.1-19.55 63.1-14.65L63.1-14.65Q63.1-11.2 61.2-7.5 59.3-3.8 56.13-1.38 52.95 1.05 49.45 1.05L49.45 1.05ZM50.2-2.95Q51.8-2.95 53.43-4.95 55.05-6.95 56.1-10 57.15-13.05 57.15-15.95L57.15-15.95Q57.15-20.4 53.45-20.4L53.45-20.4Q51.4-20.4 49.7-18.45 48-16.5 47-13.63 46-10.75 46-8.25L46-8.25Q46-6.8 46.65-5.58 47.3-4.35 48.28-3.65 49.25-2.95 50.2-2.95L50.2-2.95ZM93.6-16.9L89.05 1.7Q88.65 2.5 87.78 3.1 86.9 3.7 85.9 3.7L85.9 3.7Q85 3.7 84.08 3.03 83.15 2.35 83.15 1.25L83.15 1.25 83.15 0.95 87.4-16.4 82.75-16Q81.2-16 81.2-17.55L81.2-17.55Q81.2-18.8 82.1-20.05L82.1-20.05Q82.25-20.25 88.65-20.95L88.65-20.95 89.55-25.1Q90.75-30.3 93.38-32.98 96-35.65 100.8-35.65L100.8-35.65Q103.1-35.65 104.8-34.65 106.5-33.65 107.35-32.1 108.2-30.55 108.2-28.95L108.2-28.95Q108.2-27.7 107.63-26.95 107.05-26.2 105.25-26.2L105.25-26.2Q104.6-26.2 104.33-26.6 104.05-27 103.75-27.95L103.75-27.95Q103.4-29.2 102.8-29.9 102.2-30.6 100.7-30.6L100.7-30.6Q99-30.6 97.83-29.68 96.65-28.75 96.3-27.45L96.3-27.45 94.75-21.55 97.8-21.85Q99.8-22.05 99.95-22.05L99.95-22.05Q101.85-22.05 101.85-19.85L101.85-19.85Q101.85-19 101.13-18.32 100.4-17.65 99.55-17.5L99.55-17.5 93.6-16.9ZM129.61-18.1L126.46-5.5Q126.46-4.35 127.06-3.68 127.66-3 128.76-3L128.76-3Q130.26-3 131.23-3.88 132.21-4.75 133.31-6.35L133.31-6.35Q134.11-7.5 134.61-8 135.11-8.5 135.76-8.5L135.76-8.5Q137.06-8.5 137.61-8.18 138.16-7.85 138.16-6.85L138.16-6.85Q138.16-6.4 138.06-5.78 137.96-5.15 137.81-4.85L137.81-4.85Q136.61-2.3 133.88-0.45 131.16 1.4 127.71 1.4L127.71 1.4Q124.26 1.4 122.51-0.28 120.76-1.95 120.76-5.05L120.76-5.05Q120.76-5.5 121.21-7.4 121.66-9.3 122.36-11.95L122.36-11.95 123.76-17.65 120.71-17.4Q120.11-17.4 119.81-17.85 119.51-18.3 119.51-18.95L119.51-18.95Q119.51-20.2 120.41-21.45L120.41-21.45Q120.51-21.6 121.41-21.75 122.31-21.9 123.61-22.05L123.61-22.05 124.96-22.2 126.66-29.5Q127.16-30.8 128.18-31.53 129.21-32.25 130.11-32.25L130.11-32.25Q131.11-32.25 131.81-31.65 132.51-31.05 132.56-30.25L132.56-30.25 130.76-22.75Q132.71-23 134.38-23.18 136.06-23.35 137.01-23.35L137.01-23.35Q138.91-23.35 138.91-21.15L138.91-21.15Q138.91-20.3 138.18-19.63 137.46-18.95 136.61-18.8L136.61-18.8 129.61-18.1ZM172.91-10.8Q171.16-5.3 168.43-2.2 165.71 0.9 162.91 0.9L162.91 0.9Q157.91 0.9 157.91-8.1L157.91-8.1Q157.91-11.85 158.83-15.45 159.76-19.05 160.91-21.65L160.91-21.65Q161.81-23.75 164.11-23.75L164.11-23.75Q166.71-23.75 166.71-21.45L166.71-21.45Q166.71-21.2 166.11-19.5L166.11-19.5Q163.41-12.2 163.41-8.3L163.41-8.3Q163.41-6.45 163.73-5.28 164.06-4.1 164.81-4.1L164.81-4.1Q166.16-4.1 167.83-7.18 169.51-10.25 170.93-14.53 172.36-18.8 172.96-22L172.96-22Q173.06-22.65 173.93-23.15 174.81-23.65 175.46-23.65L175.46-23.65Q176.76-23.65 177.31-23.08 177.86-22.5 177.86-21.25L177.86-21.25Q177.86-21 177.56-19.7L177.56-19.7Q176.81-15.7 176.38-12.93 175.96-10.15 175.96-7.75L175.96-7.75Q175.96-6.15 176.48-5.13 177.01-4.1 177.81-4.1L177.81-4.1Q180.11-4.1 182.03-9.8 183.96-15.5 185.16-22.1L185.16-22.1Q185.36-23.4 187.36-23.4L187.36-23.4Q188.46-23.4 189.51-23.03 190.56-22.65 190.61-22.2L190.61-22.2 190.06-19.65Q188.66-13.1 187.41-9.1 186.16-5.1 183.66-2.1 181.16 0.9 177.16 0.9L177.16 0.9Q172.71 0.9 172.71-6.2L172.71-6.2Q172.71-8.4 173.11-10.8L173.11-10.8 172.91-10.8ZM226.31-2.6Q226.41-1.3 226.66-0.25L226.66-0.25Q226.56 0.05 225.78 0.35 225.01 0.65 224.46 0.65L224.46 0.65Q222.66 0.65 221.88 0.13 221.11-0.4 221.11-1.45L221.11-1.45Q221.11-2.45 221.31-3.45L221.31-3.45Q220.21-1.95 218.08-0.98 215.96 0 214.66 0L214.66 0Q211.31 0 209.08-1.95 206.86-3.9 206.86-8.2L206.86-8.2Q206.86-12.25 208.78-15.83 210.71-19.4 214.11-21.58 217.51-23.75 221.66-23.75L221.66-23.75Q222.46-23.75 223.76-23.33 225.06-22.9 226.38-21.88 227.71-20.85 228.61-19.25L228.61-19.25Q229.01-19.25 229.56-18.85 230.11-18.45 230.11-18.05L230.11-18.05Q230.11-17.6 229.96-17.15L229.96-17.15 226.31-2.6ZM224.06-16.6Q223.76-17.7 222.88-18.45 222.01-19.2 221.31-19.2L221.31-19.2Q219.01-19.2 216.98-17.57 214.96-15.95 213.71-13.55 212.46-11.15 212.46-9L212.46-9Q212.46-6.9 212.96-5.55 213.46-4.2 214.91-4.2L214.91-4.2Q216.16-4.2 217.78-4.95 219.41-5.7 220.68-6.98 221.96-8.25 222.36-9.65L222.36-9.65 224.06-16.6ZM253.96-1.9Q253.91-1.6 253.74-0.73 253.56 0.15 252.89 0.5 252.21 0.85 250.76 0.85L250.76 0.85Q249.11 0.85 248.36 0.5 247.61 0.15 247.61-1L247.61-1 250.01-10.55Q252.01-18.8 252.66-21.05L252.66-21.05 251.41-22.55Q251.26-22.7 251.26-22.9L251.26-22.9Q251.26-23.4 252.36-23.73 253.46-24.05 255.41-24.05L255.41-24.05Q257.16-24.05 257.76-23.08 258.36-22.1 258.51-20.55L258.51-20.55 258.16-19.25Q259.76-21.2 261.89-22.48 264.01-23.75 265.66-23.75L265.66-23.75Q267.81-23.75 269.01-23 270.21-22.25 270.21-21.05L270.21-21.05Q270.21-20 269.49-18.88 268.76-17.75 267.66-16.98 266.56-16.2 265.51-16.1L265.51-16.1Q264.51-16.1 264.16-16.35 263.81-16.6 263.81-17.1L263.81-17.1 264.11-18.75Q260.11-17.65 256.86-13.45L256.86-13.45 253.96-1.9ZM293.61 1.05Q288.71 1.05 286.46-0.9 284.21-2.85 284.21-6.1L284.21-6.1Q284.21-10.85 286.59-14.9 288.96-18.95 292.94-21.33 296.91-23.7 301.51-23.7L301.51-23.7Q304.31-23.7 306.21-22.13 308.11-20.55 308.11-17.5L308.11-17.5Q308.11-15.75 306.99-14.63 305.86-13.5 303.76-12.63 301.66-11.75 296.96-10.15L296.96-10.15Q292.71-8.75 290.06-7.8L290.06-7.8Q289.86-7.05 289.86-6.25L289.86-6.25Q289.86-4.85 291.04-4.1 292.21-3.35 294.36-3.35L294.36-3.35Q295.71-3.35 297.46-3.9 299.21-4.45 299.66-5.3L299.66-5.3Q301.36-8.4 302.76-8.4L302.76-8.4Q304.81-8.4 305.54-7.63 306.26-6.85 306.31-5.9L306.31-5.9Q305.71-4.3 303.96-2.68 302.21-1.05 299.51 0 296.81 1.05 293.61 1.05L293.61 1.05ZM291.46-12.4Q296.41-14 299.61-15.38 302.81-16.75 302.81-18.1L302.81-18.1Q302.81-18.7 302.16-19.07 301.51-19.45 300.76-19.45L300.76-19.45Q299.26-19.45 297.34-18.3 295.41-17.15 293.76-15.5 292.11-13.85 291.46-12.4L291.46-12.4Z" opacity="1" transform="matrix(1,0,0,1,0,0)" fill="#398378" class="slogan-text-1" data-fill-palette-color="secondary" id="text-1"></path></svg></g></svg></g></svg></g></svg></g><g><svg viewBox="0 0 151.05858048 112.91154634975229" height="112.91154634975229" width="151.05858048"><g><svg xmlns="http://www.w3.org/2000/svg" xmlns:xlink="http://www.w3.org/1999/xlink" version="1.1" x="0" y="0" viewBox="1.1 13.399999999999999 97.80000000000001 73.10242952049867" enable-background="new 0 0 100 100" xml:space="preserve" height="112.91154634975229" width="151.05858048" class="icon-icon-0" data-fill-palette-color="accent" id="icon-0"><path d="M1.1 79.9v-4.1h5.4 0.3V33.2c0-3.4 2.7-6.1 6.1-6.1h23.7c-0.5 2-0.8 4.1-0.8 6.3 0 0.7 0 1.3 0.1 2H15v40.4h21.2v0.4c0 1.3 1 2.3 2.3 2.3h11.6c1.3 0 2.3-1 2.3-2.3v-0.4h21.2V58.5H79c1 0 2-0.1 3-0.2v17.4h0.3 5.4v4.1c0 3.7-3 6.7-6.7 6.7h-6.4H14.2 7.8C4.1 86.6 1.1 83.6 1.1 79.9zM40.8 33.4c0-11 9-20 20-20h18.1c11 0 20 9 20 20 0 11-9 20-20 20H65.4l-9.2 9.2c-0.6 0.6-1.7 0.2-1.7-0.7v-9.5C46.5 49.7 40.8 42.3 40.8 33.4zM52.7 33.5c0 1.1 0.2 2.1 0.6 3.1 0.4 1 1 1.9 1.8 2.7 0.8 0.8 1.7 1.4 2.7 1.8 1 0.4 2 0.6 3.1 0.6 1.1 0 2.1-0.2 3.1-0.6 1-0.4 1.9-1 2.7-1.8l0.6-0.6-2.6-2.6-0.6 0.6c-0.9 0.9-2 1.3-3.2 1.3-1.2 0-2.3-0.5-3.2-1.3-0.9-0.9-1.3-2-1.3-3.2s0.5-2.3 1.3-3.2c0.9-0.9 2-1.3 3.2-1.3 1.2 0 2.3 0.5 3.2 1.3l3.2 3.2 5.8 5.8c0.8 0.8 1.7 1.4 2.7 1.8 1 0.4 2 0.6 3.1 0.6 1.1 0 2.1-0.2 3.1-0.6 1-0.4 1.9-1 2.7-1.8 0.8-0.8 1.4-1.7 1.8-2.7 0.4-1 0.6-2 0.6-3.1 0-1.1-0.2-2.1-0.6-3.1-0.4-1-1-1.9-1.8-2.7-0.8-0.8-1.7-1.4-2.7-1.8-1-0.4-2-0.6-3.1-0.6-1.1 0-2.1 0.2-3.1 0.6-1 0.4-1.9 1-2.7 1.8l-0.7 0.7L75 31l0.7-0.7c0.9-0.9 2-1.3 3.2-1.3 1.2 0 2.3 0.5 3.2 1.3 0.9 0.9 1.3 2 1.3 3.2s-0.5 2.3-1.3 3.2c-0.9 0.9-2 1.3-3.2 1.3-1.2 0-2.3-0.5-3.2-1.3l-1.3-1.3-7.7-7.7c-0.8-0.8-1.7-1.4-2.7-1.8-1-0.4-2-0.6-3.1-0.6-1.1 0-2.1 0.2-3.1 0.6-1 0.4-1.9 1-2.7 1.8-0.8 0.8-1.4 1.7-1.8 2.7C52.9 31.4 52.7 32.4 52.7 33.5z" fill="#31c48d" data-fill-palette-color="accent"></path></svg></g></svg></g></svg></g></svg></g></svg></g><g><path d="M0 123.6c0-68.262 55.338-123.6 123.6-123.6 55.206 0 101.958 36.193 117.823 86.146h-1.438c-15.816-49.184-61.944-84.776-116.385-84.776-67.506 0-122.23 54.724-122.23 122.23 0 67.506 54.724 122.23 122.23 122.23 54.441 0 100.569-35.592 116.385-84.776h1.438c-15.865 49.952-62.617 86.146-117.823 86.146-68.262 0-123.6-55.338-123.6-123.6z" fill="#398378" stroke="transparent" data-fill-palette-color="tertiary"></path></g></svg></g><defs></defs></svg><rect width="395.52" height="247.2" fill="none" stroke="none" visibility="hidden"></rect></g></svg></g></svg>